<svg xmlns="http://www.w3.org/2000/svg" aria-hidden="true" style="position:absolute;width:0;height:0;overflow:hidden">
  <defs>
    <symbol id="icon-combined-shape" viewBox="0 0 32 32">
      <path d="M16 0c8.837 0 16 7.163 16 16s-7.163 16-16 16S0 24.837 0 16 7.163 0 16 0zm0 2.56C8.577 2.56 2.56 8.577 2.56 16S8.577 29.44 16 29.44c7.423 0 13.44-6.017 13.44-13.44S23.423 2.56 16 2.56zm6.788 18.418c-.5-.5-1.31-.5-1.81 0-2.749 2.749-7.207 2.749-9.956 0s-2.749-7.207 0-9.956c2.722-2.722 7.118-2.749 9.873-.082l.083.082c.5.5 1.31.5 1.81 0s.5-1.31 0-1.81c-3.749-3.749-9.827-3.749-13.576 0s-3.749 9.827 0 13.576c3.749 3.749 9.827 3.749 13.576 0 .5-.5.5-1.31 0-1.81z"/>
    </symbol>
    <symbol id="icon-eye" viewBox="0 0 50 32">
      <path d="M49.059 14.037c.369.646.553 1.283.553 1.91s-.184 1.264-.553 1.91C46.475 22.102 43 25.503 38.635 28.059s-8.974 3.834-13.829 3.834c-4.854 0-9.464-1.282-13.829-3.848S3.137 22.084.553 17.857C.184 17.211 0 16.574 0 15.947s.185-1.264.553-1.91C3.137 9.81 6.612 6.414 10.977 3.849S19.952.001 24.806.001s9.464 1.283 13.829 3.848 7.84 5.962 10.424 10.188zM18.867 6.465c-1.652 1.652-2.478 3.632-2.478 5.939 0 .369.129.683.388.942s.572.388.942.388c.369 0 .683-.129.941-.388s.388-.572.388-.942c0-1.587.563-2.944 1.689-4.07s2.483-1.689 4.07-1.689c.369 0 .683-.129.941-.388s.387-.572.387-.941-.13-.683-.388-.941-.573-.388-.942-.388c-2.307 0-4.287.826-5.939 2.478zm5.939 21.885c4.319 0 8.329-1.122 12.03-3.364s6.778-5.256 9.233-9.04c-2.805-4.356-6.322-7.614-10.548-9.773 1.126 1.919 1.689 3.996 1.689 6.229 0 3.415-1.213 6.336-3.641 8.762s-5.348 3.641-8.762 3.641c-3.414 0-6.335-1.213-8.762-3.641s-3.641-5.348-3.641-8.762c0-2.233.563-4.31 1.689-6.229C9.866 8.332 6.35 11.59 3.545 15.946c2.455 3.784 5.532 6.797 9.233 9.04s7.71 3.364 12.029 3.364z"/>
    </symbol>
    <symbol id="icon-facebook" viewBox="0 0 32 32">
      <path d="M30.233 0H1.766C.79 0-.001.791-.001 1.767v28.468C-.001 31.21.79 32 1.766 32h15.327V19.608h-4.171v-4.829h4.171v-3.561c0-4.133 2.524-6.384 6.212-6.384 1.767 0 3.284.132 3.727.191v4.32l-2.557.001c-2.005 0-2.393.953-2.393 2.351v3.084h4.783l-.623 4.829h-4.16v12.391h8.155c.973 0 1.764-.791 1.764-1.767V1.767C32.001.791 31.21 0 30.234 0z"/>
    </symbol>
    <symbol id="icon-google" viewBox="0 0 109 32">
      <path d="M0 12.735c0 1.769.337 3.425 1.012 4.97s1.602 2.895 2.783 4.05c1.181 1.156 2.56 2.064 4.138 2.724s3.27.991 5.077.991c1.735 0 3.258-.265 4.571-.796s2.427-1.114 3.343-1.751c1.06-.755 1.976-1.615 2.746-2.582v-7.959h-8.492v2.476h5.782v4.775c-.53.637-1.18 1.203-1.951 1.698-.65.424-1.47.808-2.457 1.15s-2.168.513-3.541.513c-1.445 0-2.795-.259-4.047-.778s-2.343-1.238-3.27-2.158-1.656-2.005-2.186-3.254c-.53-1.25-.795-2.606-.795-4.068s.265-2.818.795-4.068c.53-1.25 1.259-2.335 2.186-3.254s2.018-1.639 3.27-2.158c1.253-.519 2.602-.778 4.047-.778s2.698.218 3.758.654c1.06.436 1.939.926 2.638 1.468.819.613 1.518 1.321 2.096 2.122L23.31 5.13c-.723-.943-1.578-1.792-2.566-2.547-.867-.637-1.939-1.226-3.216-1.769S14.745 0 13.011 0c-1.807 0-3.499.33-5.077.99S4.977 2.558 3.796 3.714C2.615 4.87 1.688 6.22 1.013 7.764S.001 10.965.001 12.734zm42.08 3.592c0-.918-.167-1.777-.5-2.577s-.785-1.494-1.356-2.083c-.571-.588-1.231-1.047-1.981-1.377s-1.553-.494-2.409-.494c-.857 0-1.66.165-2.409.494s-1.41.788-1.981 1.377c-.571.588-1.023 1.283-1.356 2.083s-.5 1.659-.5 2.577c0 .918.167 1.777.5 2.577s.785 1.488 1.356 2.065c.571.577 1.231 1.035 1.981 1.377s1.553.512 2.409.512c.857 0 1.66-.165 2.409-.494s1.41-.788 1.981-1.377c.571-.588 1.023-1.283 1.356-2.083s.5-1.659.5-2.577zm-15.122.326c0-1.222.235-2.374.706-3.456s1.105-2.016 1.902-2.804 1.733-1.411 2.808-1.869c1.075-.458 2.228-.688 3.46-.688s2.385.229 3.46.688 2.011 1.081 2.808 1.869c.797.788 1.431 1.722 1.902 2.804s.706 2.234.706 3.456c0 1.246-.236 2.404-.706 3.474s-1.105 1.998-1.902 2.786c-.797.788-1.733 1.411-2.808 1.869s-2.228.688-3.46.688c-1.232 0-2.385-.229-3.46-.688s-2.011-1.082-2.808-1.869c-.797-.788-1.431-1.716-1.902-2.786s-.706-2.228-.706-3.474zm34.19-.326c0-.918-.167-1.777-.5-2.577s-.785-1.494-1.356-2.083c-.571-.588-1.231-1.047-1.981-1.377s-1.553-.494-2.409-.494c-.857 0-1.66.165-2.409.494s-1.41.788-1.981 1.377c-.571.588-1.023 1.283-1.356 2.083s-.5 1.659-.5 2.577c0 .918.167 1.777.5 2.577s.785 1.488 1.356 2.065c.571.577 1.231 1.035 1.981 1.377s1.553.512 2.409.512c.857 0 1.66-.165 2.409-.494s1.41-.788 1.981-1.377c.571-.588 1.023-1.283 1.356-2.083s.5-1.659.5-2.577zm-15.123.326c0-1.222.235-2.374.706-3.456s1.105-2.016 1.902-2.804 1.733-1.411 2.808-1.869c1.075-.458 2.228-.688 3.46-.688s2.385.229 3.46.688 2.011 1.081 2.808 1.869c.797.788 1.431 1.722 1.902 2.804s.706 2.234.706 3.456c0 1.246-.235 2.404-.706 3.474s-1.105 1.998-1.902 2.786c-.797.788-1.733 1.411-2.808 1.869s-2.228.688-3.46.688c-1.232 0-2.385-.229-3.46-.688s-2.011-1.082-2.808-1.869c-.797-.788-1.431-1.716-1.902-2.786s-.706-2.228-.706-3.474zm33.634 4.711c-.386.52-.855.993-1.409 1.418-.482.355-1.078.68-1.788.975s-1.571.443-2.583.443c-1.084 0-2.119-.219-3.107-.656s-1.848-1.04-2.583-1.808c-.735-.768-1.325-1.666-1.77-2.694s-.668-2.145-.668-3.35.223-2.322.668-3.35 1.036-1.926 1.77-2.694c.735-.768 1.596-1.371 2.583-1.808s2.023-.656 3.107-.656c1.012 0 1.873.148 2.583.443s1.307.62 1.788.975c.553.425 1.023.898 1.409 1.418V7.538h2.529v15.953c0 1.205-.222 2.322-.668 3.35s-1.054 1.926-1.825 2.694c-.77.768-1.668 1.371-2.691 1.808s-2.125.656-3.306.656c-1.228 0-2.294-.183-3.197-.55s-1.656-.774-2.258-1.223c-.698-.52-1.288-1.111-1.77-1.773l1.626-1.595c.409.52.891.993 1.445 1.418.482.355 1.066.68 1.752.975s1.487.443 2.402.443c.819 0 1.59-.16 2.312-.479s1.355-.75 1.897-1.294.969-1.194 1.282-1.95.47-1.583.47-2.482v-2.127zM68.38 16c0 .898.154 1.725.461 2.482s.716 1.406 1.224 1.95c.509.544 1.094.975 1.756 1.294s1.348.479 2.058.479c.757 0 1.478-.16 2.165-.479s1.289-.75 1.81-1.294c.52-.544.934-1.194 1.242-1.95s.461-1.584.461-2.482c0-.874-.154-1.696-.461-2.464s-.721-1.424-1.242-1.968c-.52-.544-1.124-.975-1.81-1.294s-1.408-.479-2.165-.479c-.71 0-1.396.16-2.058.479s-1.248.75-1.756 1.294c-.509.544-.917 1.199-1.224 1.968S68.38 15.125 68.38 16zm20.383 8.816V0h-2.629v24.816h2.629zm5.762-7.281c.047.752.236 1.469.565 2.151s.766 1.281 1.308 1.799c.542.517 1.167.929 1.874 1.234s1.461.458 2.262.458c.896 0 1.68-.147 2.351-.441s1.243-.617 1.715-.97c.542-.423 1.013-.893 1.414-1.411l1.591 1.587c-.495.658-1.096 1.246-1.803 1.763-.613.447-1.355.852-2.228 1.217s-1.885.547-3.04.547c-1.154 0-2.245-.229-3.269-.688s-1.926-1.082-2.704-1.869c-.777-.788-1.39-1.716-1.838-2.786s-.672-2.228-.672-3.474c0-1.222.224-2.374.672-3.456s1.054-2.016 1.82-2.804c.766-.788 1.65-1.411 2.651-1.869s2.057-.688 3.164-.688c1.154 0 2.227.212 3.216.635s1.851 1.005 2.581 1.746c.731.741 1.302 1.634 1.714 2.68s.619 2.181.619 3.403c0 .188-.012.359-.035.511s-.048.288-.071.406c-.023.141-.047.259-.07.353l-13.787-.035zm6.164-7.739c-.777 0-1.512.138-2.203.415s-1.305.657-1.839 1.142c-.535.484-.972 1.044-1.311 1.678s-.558 1.297-.656 1.989h11.835c-.098-.738-.31-1.43-.638-2.076s-.746-1.199-1.256-1.661c-.51-.461-1.099-.825-1.766-1.09s-1.39-.398-2.167-.398z"/>
    </symbol>
    <symbol id="icon-instagramm" viewBox="0 0 32 32">
      <path d="M16 0c-4.345 0-4.889.019-6.596.096C3.593.363.364 3.587.097 9.403.018 11.111 0 11.655 0 16s.019 4.891.096 6.597c.267 5.811 3.491 9.04 9.307 9.307 1.708.077 2.252.096 6.597.096s4.891-.019 6.597-.096c5.805-.267 9.043-3.491 9.305-9.307.079-1.707.097-2.252.097-6.597s-.019-4.889-.096-6.596c-.261-5.805-3.489-9.04-9.305-9.307C20.89.018 20.345 0 15.999 0zm0 2.884c4.272 0 4.779.016 6.467.093 4.336.197 6.361 2.255 6.559 6.559.077 1.687.092 2.193.092 6.465 0 4.273-.016 4.779-.092 6.465-.199 4.3-2.219 6.361-6.559 6.559-1.688.077-2.192.093-6.467.093-4.272 0-4.779-.016-6.465-.093-4.347-.199-6.361-2.265-6.559-6.56-.077-1.687-.093-2.192-.093-6.465 0-4.272.017-4.777.093-6.465.199-4.303 2.219-6.361 6.559-6.559 1.688-.076 2.193-.092 6.465-.092zM7.784 16c0 4.537 3.679 8.217 8.216 8.217s8.216-3.679 8.216-8.217c0-4.537-3.679-8.216-8.216-8.216S7.784 11.463 7.784 16zM16 21.333c-2.945 0-5.333-2.387-5.333-5.333 0-2.945 2.388-5.333 5.333-5.333s5.333 2.388 5.333 5.333c0 2.947-2.388 5.333-5.333 5.333zM22.62 7.46c0 1.06.86 1.92 1.921 1.92 1.06 0 1.919-.86 1.919-1.92s-.859-1.92-1.919-1.92c-1.061 0-1.921.86-1.921 1.92z"/>
    </symbol>
    <symbol id="icon-letter" viewBox="0 0 36 32">
      <path d="M35.04 0h-9.6v3.2h3.2v25.6h-3.2V32h9.6v-3.2h-3.2V3.2h3.2V0zM17.872 14.736c-.715-1.792-1.424-3.509-2.128-5.12-.477-1.091-.959-2.142-1.445-3.205-.232-.506-.465-1.014-.699-1.531H8.832l-.248.532c-.658 1.409-1.296 2.773-1.912 4.204-.693 1.611-1.397 3.32-2.112 5.112s-1.445 3.721-2.192 5.748C1.622 22.503.832 24.72 0 27.12h5.184c.235-.8.496-1.558.784-2.368.232-.653.46-1.314.686-1.964l.162-.468h8.641l.165.475c.224.648.452 1.306.683 1.957.288.811.549 1.568.784 2.368h5.344c-.832-2.4-1.622-4.613-2.368-6.64s-1.477-3.952-2.192-5.744zM7.968 18.32c.341-.96.677-1.878 1.008-2.752s.635-1.675.912-2.4c.277-.725.523-1.365.736-1.92s.373-.992.48-1.312c.128.32.299.758.512 1.312s.464 1.195.752 1.92c.288.725.592 1.525.912 2.4s.65 1.792.992 2.752H7.968z"/>
    </symbol>
    <symbol id="icon-list" viewBox="0 0 35 32">
      <path d="M8.856 0C6.681 0 4.912 1.753 4.912 3.9l-.143 20.223 2.151.015.143-20.23c0-.969.804-1.757 1.793-1.757h21.621V0H8.856z"/>
      <path d="M26.39 4.088C26.39 1.834 28.224 0 30.478 0s4.088 1.834 4.088 4.088v4.805c0 .594-.482 1.076-1.076 1.076h-4.948v16.817c0 2.827-2.3 5.127-5.127 5.127s-5.127-2.3-5.127-5.127v-1.542H2.153v1.542c0 1.641 1.335 2.976 2.976 2.976v2.151c-2.827 0-5.127-2.3-5.127-5.127v-2.618c0-.594.482-1.076 1.076-1.076h18.287c.594 0 1.076.482 1.076 1.076v2.618c0 1.641 1.335 2.976 2.976 2.976s2.976-1.335 2.976-2.976V4.089zm2.152 0v3.729h3.872V4.088c0-1.068-.869-1.936-1.936-1.936s-1.936.868-1.936 1.936z"/>
      <path d="M4.912 29.761h18.25v2.151H4.912v-2.151zM15.992 5.988h-5.558c-.594 0-1.076.482-1.076 1.076S9.84 8.14 10.434 8.14h5.558c.594 0 1.076-.482 1.076-1.076s-.482-1.076-1.076-1.076zM22.446 10.291H10.434c-.594 0-1.076.482-1.076 1.076s.482 1.076 1.076 1.076h12.012c.594 0 1.076-.482 1.076-1.076s-.482-1.076-1.076-1.076zM22.446 14.593H10.434c-.594 0-1.076.482-1.076 1.076s.482 1.076 1.076 1.076h12.012c.594 0 1.076-.481 1.076-1.076s-.482-1.076-1.076-1.076zM22.446 18.896H10.434c-.594 0-1.076.482-1.076 1.076s.482 1.076 1.076 1.076h12.012c.594 0 1.076-.482 1.076-1.076s-.482-1.076-1.076-1.076z"/>
    </symbol>
    <symbol id="icon-twitter" viewBox="0 0 38 32">
      <path d="M38.4 4.091c-1.413.627-2.931 1.05-4.525 1.24 1.627-.974 2.877-2.518 3.464-4.358-1.522.902-3.208 1.558-5.003 1.912-1.435-1.531-3.485-2.488-5.75-2.488-5.086 0-8.824 4.746-7.675 9.672-6.546-.328-12.35-3.464-16.237-8.23C.61 5.38 1.604 10.012 5.111 12.357c-1.29-.042-2.506-.395-3.566-.986-.086 3.65 2.53 7.064 6.318 7.824-1.109.301-2.323.371-3.558.134 1.002 3.13 3.91 5.406 7.36 5.47C8.353 27.396 4.18 28.556.001 28.063c3.486 2.235 7.629 3.539 12.077 3.539 14.627 0 22.891-12.354 22.392-23.434 1.539-1.112 2.875-2.499 3.931-4.078z"/>
    </symbol>
    <symbol id="icon-vector" viewBox="0 0 134 32">
      <path d="M16.029 31.63C7.176 31.63 0 24.549 0 15.815S7.177 0 16.029 0c8.853 0 16.029 7.081 16.029 15.815S24.881 31.63 16.029 31.63zm55.487-17.722-2.348-2.18c-.302.415-.704.753-1.203 1.012s-1.085.389-1.756.389c-.579 0-1.111-.104-1.598-.311s-.904-.496-1.253-.866c-.348-.37-.621-.814-.819-1.333s-.296-1.09-.296-1.713c0-.61.099-1.171.296-1.684s.473-.957.829-1.333c.355-.376.779-.672 1.272-.886s1.036-.321 1.628-.321c.539 0 1.065.104 1.578.311s.927.526 1.243.954l2.288-2.258c-.592-.662-1.365-1.165-2.318-1.509s-1.924-.516-2.91-.516c-1.065 0-2.058.169-2.979.506s-1.723.821-2.407 1.45c-.684.629-1.22 1.392-1.608 2.287s-.582 1.895-.582 2.998c0 1.077.191 2.063.572 2.959s.908 1.664 1.578 2.307c.671.642 1.463 1.139 2.377 1.489s1.91.526 2.989.526c1.184 0 2.229-.204 3.137-.613s1.67-.964 2.288-1.664zM37.05 15.815 31.763 2.034h3.788l3.236 9.771h.079l3.216-9.771h3.729l-5.386 13.781h-3.374zM47.102 2.034h9.391v2.822h-6.136v2.589h5.8v2.667h-5.8v2.861h6.491v2.842h-9.746V2.034zm31.861 13.781V4.876h3.946V2.034H71.644v2.842h3.946v10.939h3.374zm19.6-6.949c0-1.103-.191-2.099-.572-2.988s-.911-1.645-1.588-2.268c-.677-.623-1.483-1.103-2.417-1.44s-1.947-.506-3.038-.506c-1.092 0-2.101.169-3.028.506s-1.729.817-2.407 1.44c-.677.623-1.207 1.379-1.588 2.268s-.572 1.885-.572 2.988c0 1.09.191 2.086.572 2.988s.911 1.674 1.588 2.316c.677.642 1.48 1.139 2.407 1.489s1.937.526 3.028.526c1.092 0 2.104-.175 3.038-.526s1.739-.847 2.417-1.489c.677-.642 1.207-1.415 1.588-2.316s.572-1.898.572-2.988zm-3.906-1.674c.197.519.296 1.077.296 1.674 0 .623-.099 1.197-.296 1.723s-.473.976-.829 1.353c-.355.376-.776.672-1.263.886s-1.026.321-1.618.321c-.592 0-1.131-.107-1.618-.321s-.904-.509-1.253-.886-.621-.827-.819-1.353c-.197-.526-.296-1.1-.296-1.723 0-.597.095-1.155.286-1.674s.464-.963.819-1.333c.355-.37.776-.662 1.263-.876s1.026-.321 1.618-.321 1.134.107 1.628.321c.493.214.914.506 1.263.876s.621.814.819 1.333zm13.761 8.623h3.946l-3.65-5.898c.908-.273 1.618-.727 2.131-1.363s.769-1.421.769-2.355c0-.792-.151-1.453-.454-1.985s-.707-.96-1.213-1.285-1.079-.555-1.716-.691c-.638-.136-1.292-.204-1.963-.204h-5.327v13.781h3.314v-5.47h1.144l3.019 5.47zm-.346-10.345c.138.201.207.464.207.788 0 .35-.076.636-.227.856s-.345.389-.582.506c-.237.117-.5.198-.789.243s-.572.068-.848.068h-1.598V4.719h1.795c.25 0 .51.019.779.058s.513.114.73.224c.217.11.395.266.533.467zM45.908 30.793v-7.299h-5.761v2.686h2.663v2.511c-.303.13-.631.224-.986.282s-.73.088-1.124.088c-.684 0-1.292-.107-1.825-.321s-.98-.513-1.342-.895c-.362-.383-.635-.84-.819-1.372s-.276-1.116-.276-1.752c0-.623.102-1.197.306-1.723s.49-.98.858-1.363.802-.681 1.302-.895 1.046-.321 1.638-.321c.684 0 1.295.12 1.835.36s.973.548 1.302.925l2.131-2.394c-.592-.558-1.361-1.003-2.308-1.333s-1.973-.496-3.078-.496c-1.065 0-2.058.169-2.979.506s-1.723.821-2.407 1.45-1.22 1.392-1.608 2.287c-.388.895-.582 1.895-.582 2.998 0 1.09.191 2.079.572 2.968s.911 1.651 1.588 2.287c.677.636 1.486 1.129 2.427 1.479s1.97.526 3.087.526c1.079 0 2.075-.11 2.989-.331s1.713-.506 2.397-.856zm7.369-4.632h-1.144v5.47h-3.314V17.85h5.327c.671 0 1.325.068 1.963.204s1.21.367 1.716.691c.506.324.911.753 1.213 1.285s.454 1.194.454 1.985c0 .934-.256 1.719-.769 2.355s-1.223 1.09-2.131 1.363l3.65 5.898h-3.946l-3.018-5.47zm2.88-4.088c0-.324-.069-.587-.207-.788s-.316-.357-.533-.467c-.217-.11-.46-.185-.73-.224s-.529-.058-.779-.058h-1.795v3.212h1.598c.276 0 .559-.023.848-.068s.552-.127.789-.243c.237-.117.431-.285.582-.506s.227-.506.227-.856zm14.274 6.852h-5.406l-1.026 2.706H60.33l5.859-13.781h3.275l5.8 13.781h-3.748l-1.085-2.706zm-2.664-7.397-1.775 4.73h3.512l-1.736-4.73zm18.949 2.598c-.303.552-.71.996-1.223 1.333s-1.105.584-1.776.74c-.671.156-1.368.234-2.091.234h-1.677v5.197h-3.374V17.849h5.129c.763 0 1.476.075 2.141.224s1.243.389 1.736.72c.493.331.881.766 1.164 1.304s.424 1.204.424 1.995c0 .805-.151 1.483-.454 2.034zm-2.92-2.014c0-.324-.066-.59-.197-.798s-.309-.37-.533-.487c-.224-.117-.477-.195-.76-.234s-.576-.058-.878-.058h-1.48v3.251h1.421c.316 0 .618-.026.908-.078s.549-.143.779-.273.411-.302.542-.516c.132-.214.197-.483.197-.808zm14.373 3.757h-5.445v5.762H89.35V17.85h3.374v5.217h5.445V17.85h3.374v13.781h-3.374v-5.762zm6.402 5.761h3.393V17.849h-3.393V31.63zm16.424-.243c-.908.409-1.953.613-3.137.613-1.078 0-2.075-.175-2.989-.526s-1.707-.847-2.377-1.489c-.671-.642-1.197-1.411-1.578-2.307s-.572-1.882-.572-2.959c0-1.103.194-2.102.582-2.998s.924-1.658 1.608-2.287 1.486-1.113 2.407-1.45 1.914-.506 2.979-.506c.986 0 1.956.172 2.91.516s1.726.847 2.318 1.508l-2.288 2.258c-.316-.428-.73-.746-1.243-.954s-1.039-.311-1.578-.311c-.592 0-1.134.107-1.628.321s-.917.509-1.272.886c-.355.376-.631.821-.829 1.333s-.296 1.074-.296 1.684c0 .623.099 1.194.296 1.713s.47.963.819 1.333c.348.37.766.659 1.253.866s1.019.311 1.598.311c.671 0 1.256-.13 1.756-.389s.901-.597 1.203-1.012l2.348 2.18c-.618.701-1.381 1.255-2.288 1.664zm11.255-9.956c-.289-.363-.667-.652-1.134-.866s-.918-.321-1.352-.321c-.224 0-.451.019-.681.058s-.436.114-.621.224c-.184.11-.339.253-.464.428s-.187.399-.187.672c0 .234.049.428.148.584s.244.292.434.409c.191.117.417.224.681.321.262.097.558.198.887.302.474.156.966.328 1.48.516s.98.438 1.4.749c.421.311.769.697 1.046 1.158s.415 1.035.415 1.723c0 .792-.148 1.476-.444 2.053s-.694 1.054-1.193 1.431c-.5.376-1.073.655-1.716.837-.645.182-1.309.273-1.993.273-1 0-1.966-.172-2.9-.516s-1.71-.834-2.328-1.47l2.21-2.219c.342.415.792.762 1.351 1.041s1.114.418 1.667.418c.25 0 .493-.026.73-.078s.444-.136.622-.253c.178-.117.319-.273.424-.467s.159-.428.159-.701c0-.26-.067-.48-.198-.662-.131-.182-.319-.347-.562-.496s-.545-.285-.908-.409c-.361-.123-.773-.256-1.233-.399-.447-.143-.884-.311-1.312-.506s-.809-.444-1.144-.749c-.335-.305-.605-.675-.809-1.11s-.306-.963-.306-1.586c0-.766.158-1.421.473-1.966s.73-.993 1.243-1.343 1.092-.607 1.736-.769c.645-.162 1.295-.243 1.953-.243.79 0 1.595.143 2.417.428s1.542.707 2.161 1.265l-2.15 2.238z"/>
    </symbol>
  </defs>
</svg>
